<svg version="1.1" id="Layer_1" xmlns="http://www.w3.org/2000/svg" xmlns:xlink="http://www.w3.org/1999/xlink" x="0px" y="0px"
	 width="100%" viewBox="0 0 875 221" enable-background="new 0 0 875 221" xml:space="preserve">
<path fill="#000000" opacity="1.000000" stroke="none" 
	d="
M876.000000,202.000000 
	C876.000000,208.663055 876.000000,215.326126 876.000000,221.994598 
	C615.311340,222.000000 354.622650,222.000000 93.088791,221.754089 
	C92.843147,220.985672 93.360344,220.187805 94.054092,219.980377 
	C119.618019,212.336533 132.492477,186.884583 128.038666,161.642380 
	C122.808899,132.002457 92.544502,105.505692 59.614956,110.025146 
	C40.678345,112.624123 23.429815,126.539780 18.336300,145.077820 
	C14.283276,159.828995 16.556849,173.904144 23.507427,187.149643 
	C26.557514,192.962082 31.060881,198.011917 35.183319,203.799652 
	C43.442047,193.758011 50.703011,184.827499 58.095604,176.007309 
	C60.136734,173.572021 61.061039,171.676025 59.540020,168.207153 
	C56.107037,160.377853 59.192822,152.241486 65.910622,149.284119 
	C72.782921,146.258774 80.186256,148.093796 85.856117,154.227921 
	C90.293045,159.028152 91.358727,167.234070 88.258331,172.725388 
	C85.140076,178.248337 79.121376,180.325211 70.800652,179.113556 
	C69.463463,178.918839 67.400589,179.612366 66.577248,180.628098 
	C59.626495,189.203003 53.057751,198.091553 45.990555,206.565918 
	C43.465416,209.593826 43.973190,211.021011 47.101097,212.499878 
	C52.148632,214.886368 57.213821,217.238556 62.204464,219.739136 
	C62.984699,220.130066 63.410374,221.228638 64.000000,222.000000 
	C43.038372,222.000000 22.076742,222.000000 1.000000,222.000000 
	C1.000000,163.978043 1.000000,105.956001 1.160977,47.017296 
	C2.842140,49.078197 4.267072,52.109043 5.897722,55.024837 
	C17.959282,76.592377 45.095211,92.348198 71.863968,86.743279 
	C84.747620,84.045662 95.032280,77.192482 99.501823,64.540688 
	C105.241821,48.292683 98.901833,34.410221 88.340630,22.192797 
	C79.942932,12.478179 69.309448,6.102353 56.810310,2.898560 
	C56.404648,2.794580 56.264122,1.656191 56.000000,1.000000 
	C329.214172,1.000000 602.428345,1.000000 876.000000,1.000000 
	C876.000000,59.354858 876.000000,117.710449 875.590271,176.536591 
	C868.224792,174.616333 864.614075,180.064194 859.560669,184.815659 
	C859.560669,177.725967 859.560669,172.002090 859.560669,166.292999 
	C857.098511,166.292999 855.196350,166.292999 853.287354,166.292999 
	C853.287354,178.345459 853.287354,190.076950 853.287354,202.060257 
	C855.530945,201.953369 857.436035,201.862625 859.384155,201.769806 
	C859.658386,198.151138 859.894775,195.031128 860.213501,190.825378 
	C865.663269,195.815811 867.206665,204.358887 876.000000,202.000000 
M224.291428,133.177673 
	C213.810257,119.433975 200.847641,109.422928 183.186096,107.322098 
	C171.508865,105.933098 161.045197,109.333336 153.351700,118.539619 
	C144.917252,128.632553 142.862015,141.074615 145.649414,153.211166 
	C151.324844,177.922211 165.847382,196.016434 190.444717,204.406723 
	C206.434235,209.860840 224.777847,204.777405 232.580261,188.551514 
	C225.690826,183.252731 218.895676,177.844757 211.898285,172.712494 
	C207.667313,169.609253 203.806412,164.315567 197.433075,168.999649 
	C196.891968,169.397354 195.757889,169.237991 194.982513,169.028870 
	C186.314438,166.691040 179.363159,159.576462 180.667175,149.488342 
	C181.418686,143.674469 185.374649,140.615845 191.142334,141.556580 
	C199.095810,142.853821 204.448135,148.667404 206.291870,157.712967 
	C206.622086,159.333038 207.332687,161.227524 208.512054,162.257309 
	C212.214600,165.490234 216.188370,168.419312 220.124817,171.375870 
	C224.946060,174.996948 229.835785,178.526855 235.403305,182.615707 
	C239.697678,163.911530 234.504608,148.339066 224.291428,133.177673 
M446.004761,42.500000 
	C446.004761,69.144463 445.914032,95.789368 446.046417,122.433174 
	C446.104858,134.191483 443.639618,133.146423 457.143127,132.774841 
	C459.407928,132.712509 461.596924,129.894409 464.205566,128.082489 
	C464.052032,127.983818 464.690186,128.245682 465.131500,128.699112 
	C477.527405,141.434692 500.346588,136.644073 509.649017,123.089844 
	C519.483826,108.759972 521.019226,93.315483 517.121216,76.969963 
	C513.153564,60.332401 501.001404,50.477730 484.095459,51.256283 
	C478.073608,51.533604 472.186218,54.730541 466.707123,56.447578 
	C466.707123,43.988735 466.707123,30.318731 466.707123,16.003420 
	C461.957275,16.003420 456.820190,16.228228 451.713074,15.933924 
	C447.450867,15.688308 445.691742,16.989674 445.920593,21.520987 
	C446.256165,28.165129 446.005585,34.838875 446.004761,42.500000 
M162.736908,57.123974 
	C159.371292,55.523548 155.581940,54.454796 152.743591,52.192772 
	C148.896500,49.126835 147.673203,41.586395 149.704819,38.662029 
	C151.935623,35.450989 156.639542,34.960434 162.468674,36.875847 
	C163.814743,37.318161 165.913956,36.944447 167.102066,36.126362 
	C171.383682,33.178188 175.545959,30.018492 179.448547,26.591623 
	C180.191696,25.939058 180.169067,22.856352 179.450790,22.332123 
	C169.267288,14.899835 158.299652,9.182230 145.281525,9.126611 
	C123.770988,9.034709 112.898834,25.285957 117.857399,45.035740 
	C123.746925,68.493484 151.032516,90.441345 175.387482,87.750015 
	C183.606415,86.841789 190.703461,84.146980 195.671295,77.115440 
	C206.269150,62.115097 197.614822,40.143639 185.931107,29.617483 
	C180.701828,34.035725 175.439438,38.481937 170.240173,42.874832 
	C173.221924,53.181072 171.217834,57.352654 162.736908,57.123974 
M858.991943,58.505081 
	C860.729736,56.653675 862.467590,54.802269 865.129517,51.966335 
	C860.339844,51.966335 856.731506,52.842712 853.800537,51.805340 
	C844.235596,48.419918 838.413696,53.092594 832.596497,59.726944 
	C826.407898,66.784790 819.472168,73.187523 812.691711,80.049301 
	C812.691711,58.411407 812.691711,37.531063 812.691711,16.005749 
	C807.825256,16.005749 802.518860,16.232864 797.242126,15.934616 
	C792.942444,15.691589 791.857178,17.504494 791.935120,21.489412 
	C792.140259,31.982792 792.001831,42.482872 792.001831,52.980286 
	C792.001709,77.640877 792.125122,102.302582 791.899353,126.961105 
	C791.854370,131.875031 793.460632,133.533157 798.194397,133.056168 
	C801.328857,132.740356 804.526672,132.860504 807.684204,133.020737 
	C810.957336,133.186844 812.095764,131.763763 812.029053,128.587433 
	C811.892639,122.092003 812.331177,115.569046 811.897888,109.099953 
	C811.517273,103.415367 814.367676,100.273376 818.764832,97.495087 
	C826.637390,108.338387 834.289917,118.953445 842.056763,129.484192 
	C843.061829,130.846970 844.616394,132.688385 845.986633,132.750107 
	C853.225037,133.076080 860.485962,132.903015 868.403259,132.903015 
	C867.401611,131.038544 866.929016,129.813477 866.171692,128.801422 
	C856.033691,115.253578 845.963867,101.651855 835.604797,88.274445 
	C833.290344,85.285706 833.690735,83.631004 836.180359,81.224548 
	C843.726990,73.929947 851.070740,66.425400 858.991943,58.505081 
M298.505371,38.995361 
	C288.155914,70.080414 277.806427,101.165459 267.209930,132.992432 
	C273.441864,132.992432 278.426422,132.821869 283.392609,133.050583 
	C286.881439,133.211273 288.493958,131.737595 289.332458,128.482559 
	C291.070709,121.734856 292.906525,115.000160 295.095673,108.390434 
	C295.561432,106.984001 297.662781,105.247543 299.084930,105.177742 
	C305.900970,104.843224 312.749329,104.873543 319.568848,105.171417 
	C320.817413,105.225960 322.656677,106.903221 323.078461,108.202957 
	C325.279877,114.986717 327.008911,121.922760 329.150299,128.727783 
	C329.635010,130.268112 331.033630,132.614548 332.134308,132.685501 
	C338.170593,133.074677 344.245056,132.871124 350.941833,132.871124 
	C347.730164,122.765747 344.917053,113.595833 341.903290,104.492355 
	C333.390961,78.779610 324.823853,53.084808 316.154083,27.424925 
	C315.712402,26.117790 314.277344,24.536812 313.017120,24.217077 
	C306.111359,22.464983 303.425934,24.048883 301.229889,30.661507 
	C300.391907,33.184814 299.615295,35.728504 298.505371,38.995361 
M594.358032,132.998047 
	C596.635803,132.896393 598.913635,132.794724 601.000000,132.701599 
	C601.000000,110.558083 601.000000,88.919724 601.000000,67.281357 
	C601.000000,51.775040 600.999634,51.936234 585.560120,51.903183 
	C581.096497,51.893627 579.861206,53.367561 579.922607,57.674316 
	C580.136536,72.669563 580.054077,87.670082 579.975830,102.668030 
	C579.935120,110.467873 575.151489,116.824532 567.858948,119.153725 
	C560.593201,121.474373 554.698364,118.265831 553.221497,110.860558 
	C552.479675,107.140869 552.087952,103.294785 552.051941,99.500977 
	C551.917297,85.337135 551.917969,71.170563 552.048035,57.006672 
	C552.080444,53.480476 551.130005,51.701443 547.276428,51.959091 
	C543.792419,52.192032 540.268799,52.187275 536.784119,51.959587 
	C532.998779,51.712257 531.872742,53.351795 531.959778,56.948299 
	C532.394470,74.907722 532.498169,92.876404 533.064697,110.830902 
	C533.377625,120.750648 537.281006,129.396454 546.627441,133.590942 
	C555.975464,137.786133 565.720093,137.702911 574.533569,131.227875 
	C576.474548,129.801819 578.377747,128.324295 580.761841,126.519623 
	C580.887878,132.637573 584.401123,133.491104 588.918152,133.022156 
	C590.401978,132.868134 591.915344,132.998016 594.358032,132.998047 
M714.479248,52.001904 
	C713.146118,52.002102 711.792542,52.152866 710.483459,51.975636 
	C705.606995,51.315468 703.710327,52.991928 703.895752,58.250984 
	C704.510864,75.701859 704.515503,93.173569 705.050781,110.628197 
	C705.361511,120.759590 709.333313,129.496902 718.889160,133.725739 
	C728.691711,138.063705 738.699829,137.336792 747.656006,130.594223 
	C749.203796,129.428940 750.617432,128.085327 751.557617,127.281754 
	C753.463074,129.370956 754.919800,132.452469 756.741577,132.685974 
	C762.103821,133.373322 767.610901,132.931168 772.999878,132.931168 
	C772.999878,128.001495 773.000061,123.714729 772.999878,119.427963 
	C772.999023,98.764877 772.915039,78.101181 773.068542,57.439243 
	C773.098511,53.401604 771.950134,51.575710 767.711060,51.953938 
	C764.735352,52.219437 761.716675,51.994881 758.717224,52.004017 
	C752.037048,52.024357 752.016357,52.028130 752.009521,58.514835 
	C751.994080,73.178947 752.052734,87.843330 751.979004,102.507095 
	C751.936890,110.880890 746.570374,117.629562 738.613770,119.629517 
	C732.738831,121.106224 727.435059,118.322815 725.803894,112.408577 
	C724.800842,108.771599 724.128296,104.926323 724.078247,101.164314 
	C723.883240,86.502769 723.901672,71.836113 724.058472,57.173683 
	C724.099304,53.347580 722.953918,51.496445 718.944519,51.984898 
	C717.795288,52.124901 716.614197,52.003479 714.479248,52.001904 
M417.460114,52.001846 
	C402.633881,52.001846 387.806641,51.895527 372.981720,52.034607 
	C360.535980,52.151360 362.243256,49.850925 361.952545,63.240669 
	C361.869934,67.044304 363.404175,68.113884 366.972321,68.049110 
	C376.131531,67.882820 385.295990,67.975037 394.458038,68.019432 
	C396.127197,68.027519 397.795135,68.298340 399.829010,68.480629 
	C399.225128,69.713379 399.079926,70.207344 398.784821,70.583725 
	C386.508881,86.239349 374.358368,101.996841 361.840729,117.457031 
	C358.428345,121.671577 358.933777,126.101616 359.286652,130.667816 
	C359.351501,131.506470 361.314117,132.854019 362.407562,132.860748 
	C384.062683,132.994232 405.719147,133.004837 427.374084,132.858307 
	C428.553375,132.850327 430.671631,131.318954 430.736481,130.384567 
	C431.076508,125.482880 430.895508,120.545036 430.895508,116.175461 
	C415.993774,116.175461 401.872742,116.175461 386.992920,116.175461 
	C392.525024,109.026749 397.736786,102.260361 402.982697,95.520523 
	C410.620392,85.707664 418.673553,76.182259 425.697693,65.949509 
	C427.821136,62.856125 427.508179,57.808453 427.331360,53.698120 
	C427.302246,53.020813 422.200378,52.555428 419.439209,52.010456 
	C419.118561,51.947163 418.774567,52.001858 417.460114,52.001846 
M654.624023,135.998245 
	C666.533813,137.005325 676.779724,133.155792 685.836975,125.542183 
	C688.783752,123.065147 689.811279,121.032883 686.540344,117.892715 
	C683.477478,114.952301 680.936096,111.468704 678.022034,108.056541 
	C675.859619,110.000038 674.105957,111.723557 672.202820,113.262199 
	C661.749512,121.713226 644.540649,120.253311 639.256104,106.424004 
	C634.883728,94.981697 635.691650,83.796745 643.207520,73.888649 
	C647.626465,68.063164 654.197815,65.912155 661.439819,67.183884 
	C668.118469,68.356697 674.128052,70.797630 676.785828,77.988701 
	C676.984619,78.526566 679.614319,78.967033 680.012207,78.504646 
	C683.446411,74.513695 686.627625,70.304932 690.519409,65.352928 
	C686.290161,61.996777 682.542419,58.531471 678.327759,55.781849 
	C669.913452,50.292385 660.259705,50.148094 650.827576,51.251915 
	C641.383362,52.357174 632.814575,56.415794 626.758545,64.002525 
	C617.603394,75.471794 614.181763,88.563316 617.035278,103.203568 
	C620.698792,121.999413 635.852966,135.685608 654.624023,135.998245 
M132.314148,137.269913 
	C132.984879,138.717316 133.655594,140.164719 134.326324,141.612122 
	C135.936539,120.060226 142.798599,103.071899 167.938705,100.261284 
	C156.088440,99.228668 146.196106,94.992638 136.964005,88.704292 
	C127.680992,82.381264 121.473396,73.499260 115.724640,62.654396 
	C113.473534,89.926285 100.370674,97.548195 81.714790,101.372231 
	C104.284660,105.061043 121.192772,116.631844 132.314148,137.269913 
M348.955597,192.009567 
	C348.763458,179.149002 344.876007,175.088287 333.691650,176.738251 
	C333.691650,173.254150 333.691650,169.843155 333.691650,166.251328 
	C330.894348,166.251328 328.662811,166.251328 326.247314,166.251328 
	C326.247314,178.241165 326.247314,189.959259 326.247314,201.055893 
	C330.409241,201.740631 334.203003,202.464890 338.028381,202.928558 
	C339.073334,203.055222 340.600494,202.749527 341.241882,202.040833 
	C343.903595,199.099854 346.311096,195.928741 348.955597,192.009567 
M456.713867,197.840759 
	C461.066101,202.890900 461.628326,203.059814 467.603760,201.204636 
	C463.989014,196.507721 460.339203,191.765228 456.706726,187.045303 
	C460.181091,183.868286 463.383301,180.940140 466.629181,177.972046 
	C458.675171,173.504120 455.893677,180.976700 450.512024,184.407837 
	C450.512024,177.691254 450.512024,171.970459 450.512024,166.321869 
	C448.035522,166.321869 446.141785,166.321869 444.312775,166.321869 
	C444.312775,178.400421 444.312775,190.127960 444.312775,202.096954 
	C446.572327,201.963303 448.471252,201.850967 450.927063,201.705704 
	C450.927063,198.139374 450.927063,195.108383 450.927063,192.077408 
	C451.343475,191.918701 451.759857,191.759995 452.176270,191.601273 
	C453.549103,193.467453 454.921967,195.333633 456.713867,197.840759 
M283.613068,174.765121 
	C283.271606,173.661301 283.159912,172.398224 282.532227,171.492844 
	C281.694122,170.283951 280.595795,169.017776 279.314026,168.480835 
	C278.854431,168.288330 277.120880,169.979187 276.683441,171.091537 
	C274.768127,175.961746 273.000916,180.898361 271.398468,185.881180 
	C269.768311,190.950241 268.394135,196.101654 266.895691,201.258850 
	C271.377167,202.427368 274.044861,201.827576 274.550232,197.294922 
	C274.848083,194.623383 275.897308,192.975204 279.274139,192.897705 
	C282.835083,192.815979 283.865692,194.551682 284.500671,197.363571 
	C284.815643,198.758362 285.268585,200.121979 285.659546,201.501129 
	C288.146637,201.501129 290.368256,201.501129 292.700653,201.501129 
	C289.671539,192.654770 286.739624,184.092163 283.613068,174.765121 
M618.143188,181.253769 
	C619.229126,182.609451 620.315002,183.965134 621.195862,185.064835 
	C628.965576,180.277939 631.826965,180.809082 632.864929,186.424850 
	C629.656433,187.013992 626.287415,187.173904 623.279358,188.298935 
	C619.357178,189.765839 617.066895,192.931610 618.321716,197.312256 
	C619.414490,201.127167 621.965332,203.339172 626.391235,202.878098 
	C629.727051,202.530594 633.156250,202.943985 636.453552,202.434219 
	C637.647522,202.249634 639.359802,200.449951 639.487061,199.244781 
	C639.904907,195.290665 639.516235,191.258408 639.786621,187.279892 
	C640.139465,182.086197 637.865234,178.806717 633.201660,176.862717 
	C627.249390,174.381516 622.681152,177.411972 618.143188,181.253769 
M745.137024,182.232803 
	C748.171631,182.776199 751.206238,183.319595 754.872375,183.976059 
	C757.284607,181.789001 756.961121,178.907883 753.317505,177.243546 
	C749.135010,175.333099 741.360779,176.402069 738.364502,179.299606 
	C734.775574,182.770279 732.953918,189.834274 735.482361,194.336670 
	C737.142334,197.292725 740.054260,199.814896 742.937805,201.729828 
	C745.259460,203.271515 745.189026,204.371140 743.574707,205.868835 
	C742.448181,206.913986 740.931824,207.538895 739.589600,208.351486 
	C739.802124,209.148621 740.014709,209.945755 740.227295,210.742889 
	C743.626648,211.073715 747.123047,211.993820 750.379700,211.457794 
	C751.765503,211.229721 753.109192,208.059158 753.573792,206.021088 
	C753.816284,204.957260 752.110657,203.449326 751.336243,202.223160 
	C752.723511,201.324066 754.844604,199.949417 757.250061,198.390472 
	C755.716309,196.482666 754.655334,195.162994 753.594421,193.843323 
	C753.490845,194.300735 753.387329,194.758163 753.283752,195.215591 
	C750.425781,195.499619 747.218872,196.691467 744.823853,195.770981 
	C743.015076,195.075775 741.302429,191.691727 741.274475,189.482529 
	C741.246033,187.239944 743.336304,184.970505 745.137024,182.232803 
M774.051453,197.031830 
	C772.669861,195.653778 771.288330,194.275726 769.020325,192.013519 
	C775.576843,192.013519 780.552795,192.013519 785.469421,192.013519 
	C787.413757,184.702377 784.714783,177.606750 776.836182,176.097748 
	C771.339417,175.044937 766.171570,179.301605 763.683960,187.020264 
	C762.099609,191.936340 765.515686,199.474655 770.506897,202.076508 
	C775.332092,204.591843 781.858887,202.949783 785.663269,197.911789 
	C784.723450,196.931595 783.731812,195.897308 783.610291,195.770554 
	C779.867310,196.359467 777.367310,196.752792 774.051453,197.031830 
M552.322327,196.542526 
	C552.856140,193.838394 553.819458,191.136688 553.834595,188.429642 
	C553.866333,182.754028 550.346008,178.472351 544.948120,176.593857 
	C539.875854,174.828674 536.193054,177.243393 533.095215,180.686981 
	C529.811157,184.337509 529.323486,191.659271 531.262329,195.565353 
	C535.630310,204.365402 546.219482,205.993484 552.322327,196.542526 
M421.758362,195.266006 
	C421.313324,189.247116 420.868286,183.228241 420.433960,177.354263 
	C418.244141,177.354263 416.345825,177.354263 414.121582,177.354263 
	C414.121582,182.857559 413.934479,187.994431 414.173706,193.111359 
	C414.417297,198.321503 417.935638,202.919067 421.547302,202.757721 
	C426.401031,202.540909 431.234314,201.867325 435.767639,201.420258 
	C435.767639,193.255234 435.767639,185.202881 435.767639,177.294983 
	C433.431549,177.294983 431.514191,177.294983 429.135223,177.294983 
	C429.135223,182.394913 429.326019,187.192841 429.081665,191.968506 
	C428.836456,196.760757 426.895813,197.768753 421.758362,195.266006 
M593.197510,177.005020 
	C591.686157,177.005020 590.174805,177.005020 588.154541,177.005020 
	C590.898804,184.303131 593.442810,190.581497 595.568542,196.998428 
	C596.268555,199.111679 596.773132,202.200851 595.727600,203.701874 
	C594.841553,204.973953 591.591675,204.599487 588.636475,205.074402 
	C588.359314,205.697433 587.733643,207.104034 587.154297,208.406540 
	C593.202759,213.289307 599.445557,211.391602 601.851929,204.928406 
	C604.848511,196.879807 607.739014,188.791168 610.595886,180.691818 
	C610.949829,179.688278 610.817444,178.513199 610.921936,177.281860 
	C608.525330,177.281860 606.458679,177.281860 605.015137,177.281860 
	C603.586792,182.714569 602.275574,187.701614 600.793335,193.339355 
	C598.287903,187.418304 596.123962,182.304260 593.197510,177.005020 
M361.205750,177.053650 
	C359.616302,177.053650 358.026825,177.053650 356.057861,177.053650 
	C356.057861,182.388763 356.243866,187.188980 356.019653,191.969940 
	C355.533600,202.335480 363.036072,205.806778 369.198395,201.366028 
	C372.855011,201.680374 375.179932,201.880234 376.991760,202.035980 
	C376.991760,193.291733 376.991760,185.231079 376.991760,177.335968 
	C374.493103,177.335968 372.594025,177.335968 370.188934,177.335968 
	C370.188934,182.653198 370.522308,187.647552 369.998962,192.550446 
	C369.827545,194.156494 367.658295,196.377243 366.002869,196.819214 
	C362.858795,197.658661 362.914551,194.778503 362.799164,192.636276 
	C362.524689,187.539627 362.299133,182.440323 361.205750,177.053650 
M518.056152,201.947708 
	C519.963440,199.097580 523.105225,196.395554 523.469360,193.360306 
	C523.937622,189.456467 519.604675,188.276199 516.385742,187.011627 
	C514.183044,186.146271 512.001221,185.227753 509.329651,184.136841 
	C513.462891,179.920151 516.564575,182.819016 519.989502,184.523575 
	C520.944946,183.264542 521.905762,181.998352 522.949768,180.622620 
	C519.777344,176.840805 515.815674,175.448975 511.348419,176.088211 
	C507.493774,176.639771 503.861389,178.260544 503.284790,182.739929 
	C502.695923,187.314560 505.552277,189.677704 509.608826,190.912811 
	C511.180054,191.391205 512.885010,191.697083 514.239258,192.544647 
	C515.528076,193.351212 516.439087,194.761612 517.516174,195.906525 
	C517.198914,196.496719 516.881592,197.086914 516.564331,197.677109 
	C512.451599,196.759094 508.338928,195.841080 503.973358,194.866608 
	C501.216125,198.553253 501.249664,200.053940 505.874451,201.440735 
	C509.436279,202.508774 513.469666,202.004272 518.056152,201.947708 
M581.754456,196.032333 
	C582.787231,190.464279 579.413025,188.363480 574.857483,186.910568 
	C572.568420,186.180527 570.473572,184.841553 568.290894,183.777954 
	C568.596436,183.032043 568.901917,182.286133 569.207458,181.540222 
	C572.348206,182.334564 575.488953,183.128922 579.071167,184.034943 
	C579.574219,183.321198 580.488464,182.023941 581.540955,180.530624 
	C578.277283,177.078186 574.313843,175.526459 569.934021,176.135056 
	C566.176758,176.657135 562.426819,177.939865 562.080933,182.881439 
	C561.747620,187.644318 564.747375,189.649323 568.576294,191.040604 
	C570.269836,191.655975 572.080444,192.059875 573.623901,192.936493 
	C574.571167,193.474487 575.113098,194.726074 575.836975,195.657227 
	C574.887390,196.145493 573.865540,197.151688 573.001038,197.030914 
	C569.557007,196.549820 566.162109,195.717545 562.330200,194.929108 
	C561.895447,195.655716 561.066650,197.040970 560.261902,198.385971 
	C567.219360,205.267776 576.313416,204.532791 581.754456,196.032333 
M311.383850,188.993256 
	C313.969971,185.430435 318.768188,183.064606 317.709625,177.220596 
	C311.195679,177.220596 304.776245,177.220596 297.994995,177.220596 
	C298.087402,179.050079 298.166351,180.612549 298.256622,182.399353 
	C301.662933,182.628891 304.694580,182.833191 307.588837,183.028214 
	C305.422577,190.011917 296.987000,193.133896 297.163391,201.750214 
	C303.724396,201.750214 309.537354,201.563980 315.332001,201.809586 
	C319.905853,202.003418 320.362457,199.948318 319.011688,195.863235 
	C315.121887,195.863235 311.252167,195.863235 306.892273,195.863235 
	C308.535645,193.378387 309.776123,191.502731 311.383850,188.993256 
M654.557495,196.005280 
	C652.621704,196.229050 650.685913,196.452805 648.425171,196.714142 
	C648.521667,198.549545 648.603394,200.105438 648.687866,201.712357 
	C655.469238,201.712357 661.874207,201.712357 668.414673,201.712357 
	C668.414673,199.837570 668.414673,198.278732 668.414673,196.549576 
	C666.155701,196.341797 664.248047,196.166336 661.948547,195.954834 
	C661.948547,185.944473 661.948547,176.193787 661.948547,166.242004 
	C657.449585,166.242004 653.382507,166.242004 648.946533,166.242004 
	C649.113403,167.915085 649.250000,169.285126 649.387268,170.662048 
	C651.430115,170.824051 653.040283,170.951752 654.988464,171.106247 
	C654.988464,179.275986 654.988464,187.226013 654.557495,196.005280 
M400.911041,195.918350 
	C397.731110,198.044708 393.990662,197.782211 392.874146,194.504272 
	C391.802948,191.359558 391.872284,186.613312 393.599548,183.995468 
	C396.654694,179.365067 400.758392,182.290085 404.072571,185.183884 
	C405.384216,183.741028 406.461365,182.556107 407.523773,181.387436 
	C401.014099,174.515121 393.728607,174.141129 388.200073,180.418732 
	C382.072144,187.376984 383.383972,194.293564 389.264313,199.596466 
	C395.074921,204.836517 402.299652,203.849213 407.637146,196.501923 
	C405.133545,196.095490 403.322144,195.801437 400.911041,195.918350 
M802.626038,186.979660 
	C803.712402,185.438843 804.603516,182.825806 805.926453,182.584961 
	C808.517883,182.113190 811.350098,182.963959 814.271790,183.288345 
	C816.416992,178.192078 815.292480,175.964737 809.504517,176.071625 
	C804.936829,176.155975 800.385132,177.103683 795.649475,177.689850 
	C795.649475,185.670654 795.649475,193.704468 795.649475,201.659576 
	C798.262207,201.659576 800.494690,201.659576 802.783386,201.659576 
	C802.783386,196.818283 802.783386,192.353073 802.626038,186.979660 
M713.962280,193.233200 
	C714.683716,197.952362 709.902710,195.206009 708.296082,197.637344 
	C708.394165,198.761536 708.529114,200.307739 708.653870,201.736816 
	C714.974365,201.736816 720.740173,201.736816 726.639038,201.736816 
	C726.639038,199.882706 726.639038,198.329025 726.639038,196.581451 
	C724.597290,196.352341 722.845337,196.155746 720.617554,195.905746 
	C720.617554,189.576187 720.617554,183.497055 720.617554,177.203400 
	C716.512573,177.203400 712.931213,177.203400 709.384644,177.203400 
	C707.933228,181.536163 709.795837,183.206024 713.964233,182.940598 
	C713.964233,186.332199 713.964233,189.314560 713.962280,193.233200 
M826.852356,176.998108 
	C826.091675,178.546677 825.330933,180.095245 824.325073,182.142899 
	C827.266541,182.509537 828.986389,182.723907 830.652954,182.931641 
	C830.652954,187.502533 830.652954,191.732910 830.652954,195.912308 
	C824.731201,196.719284 824.731201,196.719284 825.921082,201.752548 
	C831.503601,201.752548 837.093689,201.752548 843.002319,201.752548 
	C842.914856,199.895798 842.840759,198.322968 842.767273,196.762985 
	C840.840576,196.385895 839.273499,196.079178 837.366821,195.705994 
	C837.366821,192.523407 837.366821,189.555344 837.366821,186.587265 
	C837.366821,183.490219 837.366821,180.393188 837.366821,176.982605 
	C833.718750,176.982605 830.740967,176.982605 826.852356,176.998108 
M713.178955,170.190430 
	C714.343445,173.120728 716.746521,173.640503 719.263123,172.687622 
	C720.336426,172.281250 721.805908,170.133850 721.515442,169.486115 
	C720.887024,168.084930 719.065735,166.078476 718.046265,166.244690 
	C716.258362,166.536163 714.706238,168.273987 713.178955,170.190430 
M831.489441,166.338226 
	C829.215332,169.976089 829.794556,173.009048 832.909607,172.800964 
	C834.658508,172.684158 837.552673,170.752136 837.711304,169.381088 
	C838.168457,165.430832 834.878174,165.895706 831.489441,166.338226 
z"/>
<path fill="#F71F49" opacity="1.000000" stroke="none" 
	d="
M64.468658,222.000000 
	C63.410374,221.228638 62.984699,220.130066 62.204464,219.739136 
	C57.213821,217.238556 52.148632,214.886368 47.101097,212.499878 
	C43.973190,211.021011 43.465416,209.593826 45.990555,206.565918 
	C53.057751,198.091553 59.626495,189.203003 66.577248,180.628098 
	C67.400589,179.612366 69.463463,178.918839 70.800652,179.113556 
	C79.121376,180.325211 85.140076,178.248337 88.258331,172.725388 
	C91.358727,167.234070 90.293045,159.028152 85.856117,154.227921 
	C80.186256,148.093796 72.782921,146.258774 65.910622,149.284119 
	C59.192822,152.241486 56.107037,160.377853 59.540020,168.207153 
	C61.061039,171.676025 60.136734,173.572021 58.095604,176.007309 
	C50.703011,184.827499 43.442047,193.758011 35.183319,203.799652 
	C31.060881,198.011917 26.557514,192.962082 23.507427,187.149643 
	C16.556849,173.904144 14.283276,159.828995 18.336300,145.077820 
	C23.429815,126.539780 40.678345,112.624123 59.614956,110.025146 
	C92.544502,105.505692 122.808899,132.002457 128.038666,161.642380 
	C132.492477,186.884583 119.618019,212.336533 94.054092,219.980377 
	C93.360344,220.187805 92.843147,220.985672 92.621811,221.754089 
	C83.645775,222.000000 74.291542,222.000000 64.468658,222.000000 
z"/>
<path fill="#F61F49" opacity="1.000000" stroke="none" 
	d="
M55.531342,1.000000 
	C56.264122,1.656191 56.404648,2.794580 56.810310,2.898560 
	C69.309448,6.102353 79.942932,12.478179 88.340630,22.192797 
	C98.901833,34.410221 105.241821,48.292683 99.501823,64.540688 
	C95.032280,77.192482 84.747620,84.045662 71.863968,86.743279 
	C45.095211,92.348198 17.959282,76.592377 5.897722,55.024837 
	C4.267072,52.109043 2.842140,49.078197 1.160977,46.550312 
	C1.000000,39.645748 1.000000,32.291496 1.166549,24.879593 
	C3.057854,22.550285 4.782611,20.278627 6.636829,17.836458 
	C16.511478,23.793436 26.204599,29.596317 35.826263,35.515362 
	C36.771381,36.096775 37.754635,37.319164 37.913204,38.366245 
	C39.326515,47.698814 43.334167,52.277435 52.503784,53.836678 
	C57.131424,54.623577 61.493813,53.342995 64.516037,49.419075 
	C67.376923,45.704639 66.056831,41.860611 64.215912,38.226448 
	C60.952225,31.783625 50.942276,27.951077 44.074272,30.296953 
	C42.854820,30.713478 41.134983,31.297539 40.239273,30.779264 
	C30.213169,24.977970 20.303425,18.975576 8.878484,12.139438 
	C14.848167,8.873934 19.950411,6.138608 24.980463,3.276409 
	C25.815157,2.801451 26.334780,1.772788 27.000000,1.000000 
	C36.354229,1.000000 45.708458,1.000000 55.531342,1.000000 
z"/>
<path fill="#010101" opacity="1.000000" stroke="none" 
	d="
M26.531334,1.000000 
	C26.334780,1.772788 25.815157,2.801451 24.980463,3.276409 
	C19.950411,6.138608 14.848167,8.873934 8.878484,12.139438 
	C20.303425,18.975576 30.213169,24.977970 40.239273,30.779264 
	C41.134983,31.297539 42.854820,30.713478 44.074272,30.296953 
	C50.942276,27.951077 60.952225,31.783625 64.215912,38.226448 
	C66.056831,41.860611 67.376923,45.704639 64.516037,49.419075 
	C61.493813,53.342995 57.131424,54.623577 52.503784,53.836678 
	C43.334167,52.277435 39.326515,47.698814 37.913204,38.366245 
	C37.754635,37.319164 36.771381,36.096775 35.826263,35.515362 
	C26.204599,29.596317 16.511478,23.793436 6.636829,17.836458 
	C4.782611,20.278627 3.057854,22.550285 1.166549,24.410973 
	C1.000000,16.402466 1.000000,8.804930 1.000000,1.000000 
	C9.353082,1.000000 17.707874,1.000000 26.531334,1.000000 
z"/>
<path fill="#E91F49" opacity="1.000000" stroke="none" 
	d="
M876.000000,201.600006 
	C867.206665,204.358887 865.663269,195.815811 860.213501,190.825378 
	C859.894775,195.031128 859.658386,198.151138 859.384155,201.769806 
	C857.436035,201.862625 855.530945,201.953369 853.287354,202.060257 
	C853.287354,190.076950 853.287354,178.345459 853.287354,166.292999 
	C855.196350,166.292999 857.098511,166.292999 859.560669,166.292999 
	C859.560669,172.002090 859.560669,177.725967 859.560669,184.815659 
	C864.614075,180.064194 868.224792,174.616333 875.590271,177.003571 
	C876.000000,177.444443 876.000000,177.888901 875.649048,178.593185 
	C872.181824,181.417435 869.065613,183.981842 865.642883,186.798523 
	C868.299072,190.341461 870.860352,193.871994 873.583374,197.273041 
	C874.016235,197.813751 875.176208,197.772293 876.000000,198.000000 
	C876.000000,199.066666 876.000000,200.133347 876.000000,201.600006 
z"/>
<path fill="#020102" opacity="1.000000" stroke="none" 
	d="
M876.000000,197.531723 
	C875.176208,197.772293 874.016235,197.813751 873.583374,197.273041 
	C870.860352,193.871994 868.299072,190.341461 865.642883,186.798523 
	C869.065613,183.981842 872.181824,181.417435 875.649048,178.926514 
	C876.000000,185.021149 876.000000,191.042297 876.000000,197.531723 
z"/>
<path fill="#F61F49" opacity="1.000000" stroke="none" 
	d="
M224.515503,133.463989 
	C234.504608,148.339066 239.697678,163.911530 235.403305,182.615707 
	C229.835785,178.526855 224.946060,174.996948 220.124817,171.375870 
	C216.188370,168.419312 212.214600,165.490234 208.512054,162.257309 
	C207.332687,161.227524 206.622086,159.333038 206.291870,157.712967 
	C204.448135,148.667404 199.095810,142.853821 191.142334,141.556580 
	C185.374649,140.615845 181.418686,143.674469 180.667175,149.488342 
	C179.363159,159.576462 186.314438,166.691040 194.982513,169.028870 
	C195.757889,169.237991 196.891968,169.397354 197.433075,168.999649 
	C203.806412,164.315567 207.667313,169.609253 211.898285,172.712494 
	C218.895676,177.844757 225.690826,183.252731 232.580261,188.551514 
	C224.777847,204.777405 206.434235,209.860840 190.444717,204.406723 
	C165.847382,196.016434 151.324844,177.922211 145.649414,153.211166 
	C142.862015,141.074615 144.917252,128.632553 153.351700,118.539619 
	C161.045197,109.333336 171.508865,105.933098 183.186096,107.322098 
	C200.847641,109.422928 213.810257,119.433975 224.515503,133.463989 
z"/>
<path fill="#0A2E59" opacity="1.000000" stroke="none" 
	d="
M446.004761,42.000004 
	C446.005585,34.838875 446.256165,28.165129 445.920593,21.520987 
	C445.691742,16.989674 447.450867,15.688308 451.713074,15.933924 
	C456.820190,16.228228 461.957275,16.003420 466.707123,16.003420 
	C466.707123,30.318731 466.707123,43.988735 466.707123,56.447578 
	C472.186218,54.730541 478.073608,51.533604 484.095459,51.256283 
	C501.001404,50.477730 513.153564,60.332401 517.121216,76.969963 
	C521.019226,93.315483 519.483826,108.759972 509.649017,123.089844 
	C500.346588,136.644073 477.527405,141.434692 465.131500,128.699112 
	C464.690186,128.245682 464.052032,127.983818 464.205566,128.082489 
	C461.596924,129.894409 459.407928,132.712509 457.143127,132.774841 
	C443.639618,133.146423 446.104858,134.191483 446.046417,122.433174 
	C445.914032,95.789368 446.004761,69.144463 446.004761,42.000004 
M490.373108,69.956184 
	C480.218719,64.251099 471.241974,66.946327 468.274750,76.821625 
	C465.043793,87.574684 465.215118,98.488518 468.349182,109.185066 
	C470.008728,114.849022 473.727783,119.149834 480.155334,119.919449 
	C486.095123,120.630684 492.013123,117.456093 494.642792,111.495880 
	C496.488007,107.313629 498.185425,102.781906 498.556213,98.291260 
	C499.386505,88.235275 498.422302,78.366287 490.373108,69.956184 
z"/>
<path fill="#F51F49" opacity="1.000000" stroke="none" 
	d="
M163.159149,57.086018 
	C171.217834,57.352654 173.221924,53.181072 170.240173,42.874832 
	C175.439438,38.481937 180.701828,34.035725 185.931107,29.617483 
	C197.614822,40.143639 206.269150,62.115097 195.671295,77.115440 
	C190.703461,84.146980 183.606415,86.841789 175.387482,87.750015 
	C151.032516,90.441345 123.746925,68.493484 117.857399,45.035740 
	C112.898834,25.285957 123.770988,9.034709 145.281525,9.126611 
	C158.299652,9.182230 169.267288,14.899835 179.450790,22.332123 
	C180.169067,22.856352 180.191696,25.939058 179.448547,26.591623 
	C175.545959,30.018492 171.383682,33.178188 167.102066,36.126362 
	C165.913956,36.944447 163.814743,37.318161 162.468674,36.875847 
	C156.639542,34.960434 151.935623,35.450989 149.704819,38.662029 
	C147.673203,41.586395 148.896500,49.126835 152.743591,52.192772 
	C155.581940,54.454796 159.371292,55.523548 163.159149,57.086018 
z"/>
<path fill="#0A2E59" opacity="1.000000" stroke="none" 
	d="
M858.742798,58.753860 
	C851.070740,66.425400 843.726990,73.929947 836.180359,81.224548 
	C833.690735,83.631004 833.290344,85.285706 835.604797,88.274445 
	C845.963867,101.651855 856.033691,115.253578 866.171692,128.801422 
	C866.929016,129.813477 867.401611,131.038544 868.403259,132.903015 
	C860.485962,132.903015 853.225037,133.076080 845.986633,132.750107 
	C844.616394,132.688385 843.061829,130.846970 842.056763,129.484192 
	C834.289917,118.953445 826.637390,108.338387 818.764832,97.495087 
	C814.367676,100.273376 811.517273,103.415367 811.897888,109.099953 
	C812.331177,115.569046 811.892639,122.092003 812.029053,128.587433 
	C812.095764,131.763763 810.957336,133.186844 807.684204,133.020737 
	C804.526672,132.860504 801.328857,132.740356 798.194397,133.056168 
	C793.460632,133.533157 791.854370,131.875031 791.899353,126.961105 
	C792.125122,102.302582 792.001709,77.640877 792.001831,52.980286 
	C792.001831,42.482872 792.140259,31.982792 791.935120,21.489412 
	C791.857178,17.504494 792.942444,15.691589 797.242126,15.934616 
	C802.518860,16.232864 807.825256,16.005749 812.691711,16.005749 
	C812.691711,37.531063 812.691711,58.411407 812.691711,80.049301 
	C819.472168,73.187523 826.407898,66.784790 832.596497,59.726944 
	C838.413696,53.092594 844.235596,48.419918 853.800537,51.805340 
	C856.731506,52.842712 860.339844,51.966335 865.129517,51.966335 
	C862.467590,54.802269 860.729736,56.653675 858.742798,58.753860 
z"/>
<path fill="#0A2E59" opacity="1.000000" stroke="none" 
	d="
M298.658020,38.629135 
	C299.615295,35.728504 300.391907,33.184814 301.229889,30.661507 
	C303.425934,24.048883 306.111359,22.464983 313.017120,24.217077 
	C314.277344,24.536812 315.712402,26.117790 316.154083,27.424925 
	C324.823853,53.084808 333.390961,78.779610 341.903290,104.492355 
	C344.917053,113.595833 347.730164,122.765747 350.941833,132.871124 
	C344.245056,132.871124 338.170593,133.074677 332.134308,132.685501 
	C331.033630,132.614548 329.635010,130.268112 329.150299,128.727783 
	C327.008911,121.922760 325.279877,114.986717 323.078461,108.202957 
	C322.656677,106.903221 320.817413,105.225960 319.568848,105.171417 
	C312.749329,104.873543 305.900970,104.843224 299.084930,105.177742 
	C297.662781,105.247543 295.561432,106.984001 295.095673,108.390434 
	C292.906525,115.000160 291.070709,121.734856 289.332458,128.482559 
	C288.493958,131.737595 286.881439,133.211273 283.392609,133.050583 
	C278.426422,132.821869 273.441864,132.992432 267.209930,132.992432 
	C277.806427,101.165459 288.155914,70.080414 298.658020,38.629135 
M305.754333,90.999672 
	C309.806152,90.999672 313.857971,90.999672 318.778107,90.999672 
	C315.591583,79.502823 312.693451,69.046486 309.795319,58.590149 
	C309.509277,58.617619 309.223206,58.645088 308.937134,58.672558 
	C305.981293,69.093193 303.025452,79.513824 299.915192,90.478897 
	C302.001984,90.698090 303.425079,90.847572 305.754333,90.999672 
z"/>
<path fill="#0A2E59" opacity="1.000000" stroke="none" 
	d="
M593.886597,132.998062 
	C591.915344,132.998016 590.401978,132.868134 588.918152,133.022156 
	C584.401123,133.491104 580.887878,132.637573 580.761841,126.519623 
	C578.377747,128.324295 576.474548,129.801819 574.533569,131.227875 
	C565.720093,137.702911 555.975464,137.786133 546.627441,133.590942 
	C537.281006,129.396454 533.377625,120.750648 533.064697,110.830902 
	C532.498169,92.876404 532.394470,74.907722 531.959778,56.948299 
	C531.872742,53.351795 532.998779,51.712257 536.784119,51.959587 
	C540.268799,52.187275 543.792419,52.192032 547.276428,51.959091 
	C551.130005,51.701443 552.080444,53.480476 552.048035,57.006672 
	C551.917969,71.170563 551.917297,85.337135 552.051941,99.500977 
	C552.087952,103.294785 552.479675,107.140869 553.221497,110.860558 
	C554.698364,118.265831 560.593201,121.474373 567.858948,119.153725 
	C575.151489,116.824532 579.935120,110.467873 579.975830,102.668030 
	C580.054077,87.670082 580.136536,72.669563 579.922607,57.674316 
	C579.861206,53.367561 581.096497,51.893627 585.560120,51.903183 
	C600.999634,51.936234 601.000000,51.775040 601.000000,67.281357 
	C601.000000,88.919724 601.000000,110.558083 601.000000,132.701599 
	C598.913635,132.794724 596.635803,132.896393 593.886597,132.998062 
z"/>
<path fill="#0A2E59" opacity="1.000000" stroke="none" 
	d="
M714.963501,52.001915 
	C716.614197,52.003479 717.795288,52.124901 718.944519,51.984898 
	C722.953918,51.496445 724.099304,53.347580 724.058472,57.173683 
	C723.901672,71.836113 723.883240,86.502769 724.078247,101.164314 
	C724.128296,104.926323 724.800842,108.771599 725.803894,112.408577 
	C727.435059,118.322815 732.738831,121.106224 738.613770,119.629517 
	C746.570374,117.629562 751.936890,110.880890 751.979004,102.507095 
	C752.052734,87.843330 751.994080,73.178947 752.009521,58.514835 
	C752.016357,52.028130 752.037048,52.024357 758.717224,52.004017 
	C761.716675,51.994881 764.735352,52.219437 767.711060,51.953938 
	C771.950134,51.575710 773.098511,53.401604 773.068542,57.439243 
	C772.915039,78.101181 772.999023,98.764877 772.999878,119.427963 
	C773.000061,123.714729 772.999878,128.001495 772.999878,132.931168 
	C767.610901,132.931168 762.103821,133.373322 756.741577,132.685974 
	C754.919800,132.452469 753.463074,129.370956 751.557617,127.281754 
	C750.617432,128.085327 749.203796,129.428940 747.656006,130.594223 
	C738.699829,137.336792 728.691711,138.063705 718.889160,133.725739 
	C709.333313,129.496902 705.361511,120.759590 705.050781,110.628197 
	C704.515503,93.173569 704.510864,75.701859 703.895752,58.250984 
	C703.710327,52.991928 705.606995,51.315468 710.483459,51.975636 
	C711.792542,52.152866 713.146118,52.002102 714.963501,52.001915 
z"/>
<path fill="#0A2E59" opacity="1.000000" stroke="none" 
	d="
M417.950745,52.001846 
	C418.774567,52.001858 419.118561,51.947163 419.439209,52.010456 
	C422.200378,52.555428 427.302246,53.020813 427.331360,53.698120 
	C427.508179,57.808453 427.821136,62.856125 425.697693,65.949509 
	C418.673553,76.182259 410.620392,85.707664 402.982697,95.520523 
	C397.736786,102.260361 392.525024,109.026749 386.992920,116.175461 
	C401.872742,116.175461 415.993774,116.175461 430.895508,116.175461 
	C430.895508,120.545036 431.076508,125.482880 430.736481,130.384567 
	C430.671631,131.318954 428.553375,132.850327 427.374084,132.858307 
	C405.719147,133.004837 384.062683,132.994232 362.407562,132.860748 
	C361.314117,132.854019 359.351501,131.506470 359.286652,130.667816 
	C358.933777,126.101616 358.428345,121.671577 361.840729,117.457031 
	C374.358368,101.996841 386.508881,86.239349 398.784821,70.583725 
	C399.079926,70.207344 399.225128,69.713379 399.829010,68.480629 
	C397.795135,68.298340 396.127197,68.027519 394.458038,68.019432 
	C385.295990,67.975037 376.131531,67.882820 366.972321,68.049110 
	C363.404175,68.113884 361.869934,67.044304 361.952545,63.240669 
	C362.243256,49.850925 360.535980,52.151360 372.981720,52.034607 
	C387.806641,51.895527 402.633881,52.001846 417.950745,52.001846 
z"/>
<path fill="#0A2E59" opacity="1.000000" stroke="none" 
	d="
M654.152283,135.997925 
	C635.852966,135.685608 620.698792,121.999413 617.035278,103.203568 
	C614.181763,88.563316 617.603394,75.471794 626.758545,64.002525 
	C632.814575,56.415794 641.383362,52.357174 650.827576,51.251915 
	C660.259705,50.148094 669.913452,50.292385 678.327759,55.781849 
	C682.542419,58.531471 686.290161,61.996777 690.519409,65.352928 
	C686.627625,70.304932 683.446411,74.513695 680.012207,78.504646 
	C679.614319,78.967033 676.984619,78.526566 676.785828,77.988701 
	C674.128052,70.797630 668.118469,68.356697 661.439819,67.183884 
	C654.197815,65.912155 647.626465,68.063164 643.207520,73.888649 
	C635.691650,83.796745 634.883728,94.981697 639.256104,106.424004 
	C644.540649,120.253311 661.749512,121.713226 672.202820,113.262199 
	C674.105957,111.723557 675.859619,110.000038 678.022034,108.056541 
	C680.936096,111.468704 683.477478,114.952301 686.540344,117.892715 
	C689.811279,121.032883 688.783752,123.065147 685.836975,125.542183 
	C676.779724,133.155792 666.533813,137.005325 654.152283,135.997925 
z"/>
<path fill="#F21F49" opacity="1.000000" stroke="none" 
	d="
M132.201981,136.920410 
	C121.192772,116.631844 104.284660,105.061043 81.714790,101.372231 
	C100.370674,97.548195 113.473534,89.926285 115.724640,62.654396 
	C121.473396,73.499260 127.680992,82.381264 136.964005,88.704292 
	C146.196106,94.992638 156.088440,99.228668 167.938705,100.261284 
	C142.798599,103.071899 135.936539,120.060226 134.326324,141.612122 
	C133.655594,140.164719 132.984879,138.717316 132.201981,136.920410 
z"/>
<path fill="#ED1E49" opacity="1.000000" stroke="none" 
	d="
M348.883759,192.425842 
	C346.311096,195.928741 343.903595,199.099854 341.241882,202.040833 
	C340.600494,202.749527 339.073334,203.055222 338.028381,202.928558 
	C334.203003,202.464890 330.409241,201.740631 326.247314,201.055893 
	C326.247314,189.959259 326.247314,178.241165 326.247314,166.251328 
	C328.662811,166.251328 330.894348,166.251328 333.691650,166.251328 
	C333.691650,169.843155 333.691650,173.254150 333.691650,176.738251 
	C344.876007,175.088287 348.763458,179.149002 348.883759,192.425842 
M333.495575,189.587982 
	C333.604279,190.235229 333.906830,190.920319 333.789062,191.523331 
	C333.190521,194.588318 334.754456,196.978821 337.380585,196.816208 
	C339.068115,196.711731 341.185394,194.171158 342.010773,192.250198 
	C342.780884,190.457916 342.772156,187.680771 341.870972,185.999161 
	C340.925140,184.234268 338.511139,183.256195 336.738739,181.934265 
	C335.787750,183.485626 334.784637,185.008377 333.910095,186.601685 
	C333.531799,187.290833 333.418823,188.125626 333.495575,189.587982 
z"/>
<path fill="#E81F4A" opacity="1.000000" stroke="none" 
	d="
M456.504333,197.520294 
	C454.921967,195.333633 453.549103,193.467453 452.176270,191.601273 
	C451.759857,191.759995 451.343475,191.918701 450.927063,192.077408 
	C450.927063,195.108383 450.927063,198.139374 450.927063,201.705704 
	C448.471252,201.850967 446.572327,201.963303 444.312775,202.096954 
	C444.312775,190.127960 444.312775,178.400421 444.312775,166.321869 
	C446.141785,166.321869 448.035522,166.321869 450.512024,166.321869 
	C450.512024,171.970459 450.512024,177.691254 450.512024,184.407837 
	C455.893677,180.976700 458.675171,173.504120 466.629181,177.972046 
	C463.383301,180.940140 460.181091,183.868286 456.706726,187.045303 
	C460.339203,191.765228 463.989014,196.507721 467.603760,201.204636 
	C461.628326,203.059814 461.066101,202.890900 456.504333,197.520294 
z"/>
<path fill="#E01F4A" opacity="1.000000" stroke="none" 
	d="
M283.710388,175.147339 
	C286.739624,184.092163 289.671539,192.654770 292.700653,201.501129 
	C290.368256,201.501129 288.146637,201.501129 285.659546,201.501129 
	C285.268585,200.121979 284.815643,198.758362 284.500671,197.363571 
	C283.865692,194.551682 282.835083,192.815979 279.274139,192.897705 
	C275.897308,192.975204 274.848083,194.623383 274.550232,197.294922 
	C274.044861,201.827576 271.377167,202.427368 266.895691,201.258850 
	C268.394135,196.101654 269.768311,190.950241 271.398468,185.881180 
	C273.000916,180.898361 274.768127,175.961746 276.683441,171.091537 
	C277.120880,169.979187 278.854431,168.288330 279.314026,168.480835 
	C280.595795,169.017776 281.694122,170.283951 282.532227,171.492844 
	C283.159912,172.398224 283.271606,173.661301 283.710388,175.147339 
z"/>
<path fill="#E31F4A" opacity="1.000000" stroke="none" 
	d="
M618.128052,180.891037 
	C622.681152,177.411972 627.249390,174.381516 633.201660,176.862717 
	C637.865234,178.806717 640.139465,182.086197 639.786621,187.279892 
	C639.516235,191.258408 639.904907,195.290665 639.487061,199.244781 
	C639.359802,200.449951 637.647522,202.249634 636.453552,202.434219 
	C633.156250,202.943985 629.727051,202.530594 626.391235,202.878098 
	C621.965332,203.339172 619.414490,201.127167 618.321716,197.312256 
	C617.066895,192.931610 619.357178,189.765839 623.279358,188.298935 
	C626.287415,187.173904 629.656433,187.013992 632.864502,186.422668 
	C631.826965,180.809082 628.965576,180.277939 621.195862,185.064835 
	C620.315002,183.965134 619.229126,182.609451 618.128052,180.891037 
M628.851929,191.702850 
	C626.121399,192.437698 623.821411,193.426392 625.549133,196.911148 
	C631.414978,197.206390 631.414978,197.206390 633.225708,192.538788 
	C631.993408,192.202545 630.794739,191.875488 628.851929,191.702850 
z"/>
<path fill="#E11E4A" opacity="1.000000" stroke="none" 
	d="
M744.817871,182.472824 
	C743.336304,184.970505 741.246033,187.239944 741.274475,189.482529 
	C741.302429,191.691727 743.015076,195.075775 744.823853,195.770981 
	C747.218872,196.691467 750.425781,195.499619 753.283752,195.215591 
	C753.387329,194.758163 753.490845,194.300735 753.594421,193.843323 
	C754.655334,195.162994 755.716309,196.482666 757.250061,198.390472 
	C754.844604,199.949417 752.723511,201.324066 751.336243,202.223160 
	C752.110657,203.449326 753.816284,204.957260 753.573792,206.021088 
	C753.109192,208.059158 751.765503,211.229721 750.379700,211.457794 
	C747.123047,211.993820 743.626648,211.073715 740.227295,210.742889 
	C740.014709,209.945755 739.802124,209.148621 739.589600,208.351486 
	C740.931824,207.538895 742.448181,206.913986 743.574707,205.868835 
	C745.189026,204.371140 745.259460,203.271515 742.937805,201.729828 
	C740.054260,199.814896 737.142334,197.292725 735.482361,194.336670 
	C732.953918,189.834274 734.775574,182.770279 738.364502,179.299606 
	C741.360779,176.402069 749.135010,175.333099 753.317505,177.243546 
	C756.961121,178.907883 757.284607,181.789001 754.872375,183.976059 
	C751.206238,183.319595 748.171631,182.776199 744.817871,182.472824 
z"/>
<path fill="#E91F49" opacity="1.000000" stroke="none" 
	d="
M774.459351,197.088989 
	C777.367310,196.752792 779.867310,196.359467 783.610291,195.770554 
	C783.731812,195.897308 784.723450,196.931595 785.663269,197.911789 
	C781.858887,202.949783 775.332092,204.591843 770.506897,202.076508 
	C765.515686,199.474655 762.099609,191.936340 763.683960,187.020264 
	C766.171570,179.301605 771.339417,175.044937 776.836182,176.097748 
	C784.714783,177.606750 787.413757,184.702377 785.469421,192.013519 
	C780.552795,192.013519 775.576843,192.013519 769.020325,192.013519 
	C771.288330,194.275726 772.669861,195.653778 774.459351,197.088989 
M771.617493,186.892960 
	C774.256714,186.892960 776.895996,186.892960 779.535217,186.892960 
	C779.807434,186.444794 780.079651,185.996628 780.351868,185.548462 
	C778.506592,184.325043 776.719971,182.316986 774.794006,182.172989 
	C773.641907,182.086853 772.271667,184.918839 771.617493,186.892960 
z"/>
<path fill="#E41F4A" opacity="1.000000" stroke="none" 
	d="
M552.123291,196.872528 
	C546.219482,205.993484 535.630310,204.365402 531.262329,195.565353 
	C529.323486,191.659271 529.811157,184.337509 533.095215,180.686981 
	C536.193054,177.243393 539.875854,174.828674 544.948120,176.593857 
	C550.346008,178.472351 553.866333,182.754028 553.834595,188.429642 
	C553.819458,191.136688 552.856140,193.838394 552.123291,196.872528 
M538.717041,183.304474 
	C538.220520,184.158112 537.228333,185.065399 537.313965,185.856033 
	C537.670959,189.154297 538.004089,192.546829 539.142395,195.608688 
	C539.453186,196.444443 542.781494,196.929504 544.308777,196.392273 
	C548.330750,194.977493 546.906921,191.164993 547.005127,188.203430 
	C547.169556,183.247482 544.344543,181.342010 538.717041,183.304474 
z"/>
<path fill="#E81E4A" opacity="1.000000" stroke="none" 
	d="
M422.007477,195.618195 
	C426.895813,197.768753 428.836456,196.760757 429.081665,191.968506 
	C429.326019,187.192841 429.135223,182.394913 429.135223,177.294983 
	C431.514191,177.294983 433.431549,177.294983 435.767639,177.294983 
	C435.767639,185.202881 435.767639,193.255234 435.767639,201.420258 
	C431.234314,201.867325 426.401031,202.540909 421.547302,202.757721 
	C417.935638,202.919067 414.417297,198.321503 414.173706,193.111359 
	C413.934479,187.994431 414.121582,182.857559 414.121582,177.354263 
	C416.345825,177.354263 418.244141,177.354263 420.433960,177.354263 
	C420.868286,183.228241 421.313324,189.247116 422.007477,195.618195 
z"/>
<path fill="#E51F4A" opacity="1.000000" stroke="none" 
	d="
M593.578735,177.097626 
	C596.123962,182.304260 598.287903,187.418304 600.793335,193.339355 
	C602.275574,187.701614 603.586792,182.714569 605.015137,177.281860 
	C606.458679,177.281860 608.525330,177.281860 610.921936,177.281860 
	C610.817444,178.513199 610.949829,179.688278 610.595886,180.691818 
	C607.739014,188.791168 604.848511,196.879807 601.851929,204.928406 
	C599.445557,211.391602 593.202759,213.289307 587.154297,208.406540 
	C587.733643,207.104034 588.359314,205.697433 588.636475,205.074402 
	C591.591675,204.599487 594.841553,204.973953 595.727600,203.701874 
	C596.773132,202.200851 596.268555,199.111679 595.568542,196.998428 
	C593.442810,190.581497 590.898804,184.303131 588.154541,177.005020 
	C590.174805,177.005020 591.686157,177.005020 593.578735,177.097626 
z"/>
<path fill="#E51F4A" opacity="1.000000" stroke="none" 
	d="
M361.629791,177.197876 
	C362.299133,182.440323 362.524689,187.539627 362.799164,192.636276 
	C362.914551,194.778503 362.858795,197.658661 366.002869,196.819214 
	C367.658295,196.377243 369.827545,194.156494 369.998962,192.550446 
	C370.522308,187.647552 370.188934,182.653198 370.188934,177.335968 
	C372.594025,177.335968 374.493103,177.335968 376.991760,177.335968 
	C376.991760,185.231079 376.991760,193.291733 376.991760,202.035980 
	C375.179932,201.880234 372.855011,201.680374 369.198395,201.366028 
	C363.036072,205.806778 355.533600,202.335480 356.019653,191.969940 
	C356.243866,187.188980 356.057861,182.388763 356.057861,177.053650 
	C358.026825,177.053650 359.616302,177.053650 361.629791,177.197876 
z"/>
<path fill="#E31E4A" opacity="1.000000" stroke="none" 
	d="
M517.674744,202.073364 
	C513.469666,202.004272 509.436279,202.508774 505.874451,201.440735 
	C501.249664,200.053940 501.216125,198.553253 503.973358,194.866608 
	C508.338928,195.841080 512.451599,196.759094 516.564331,197.677109 
	C516.881592,197.086914 517.198914,196.496719 517.516174,195.906525 
	C516.439087,194.761612 515.528076,193.351212 514.239258,192.544647 
	C512.885010,191.697083 511.180054,191.391205 509.608826,190.912811 
	C505.552277,189.677704 502.695923,187.314560 503.284790,182.739929 
	C503.861389,178.260544 507.493774,176.639771 511.348419,176.088211 
	C515.815674,175.448975 519.777344,176.840805 522.949768,180.622620 
	C521.905762,181.998352 520.944946,183.264542 519.989502,184.523575 
	C516.564575,182.819016 513.462891,179.920151 509.329651,184.136841 
	C512.001221,185.227753 514.183044,186.146271 516.385742,187.011627 
	C519.604675,188.276199 523.937622,189.456467 523.469360,193.360306 
	C523.105225,196.395554 519.963440,199.097580 517.674744,202.073364 
z"/>
<path fill="#E51F4A" opacity="1.000000" stroke="none" 
	d="
M581.698730,196.419571 
	C576.313416,204.532791 567.219360,205.267776 560.261902,198.385971 
	C561.066650,197.040970 561.895447,195.655716 562.330200,194.929108 
	C566.162109,195.717545 569.557007,196.549820 573.001038,197.030914 
	C573.865540,197.151688 574.887390,196.145493 575.836975,195.657227 
	C575.113098,194.726074 574.571167,193.474487 573.623901,192.936493 
	C572.080444,192.059875 570.269836,191.655975 568.576294,191.040604 
	C564.747375,189.649323 561.747620,187.644318 562.080933,182.881439 
	C562.426819,177.939865 566.176758,176.657135 569.934021,176.135056 
	C574.313843,175.526459 578.277283,177.078186 581.540955,180.530624 
	C580.488464,182.023941 579.574219,183.321198 579.071167,184.034943 
	C575.488953,183.128922 572.348206,182.334564 569.207458,181.540222 
	C568.901917,182.286133 568.596436,183.032043 568.290894,183.777954 
	C570.473572,184.841553 572.568420,186.180527 574.857483,186.910568 
	C579.413025,188.363480 582.787231,190.464279 581.698730,196.419571 
z"/>
<path fill="#E41F4A" opacity="1.000000" stroke="none" 
	d="
M311.200226,189.310181 
	C309.776123,191.502731 308.535645,193.378387 306.892273,195.863235 
	C311.252167,195.863235 315.121887,195.863235 319.011688,195.863235 
	C320.362457,199.948318 319.905853,202.003418 315.332001,201.809586 
	C309.537354,201.563980 303.724396,201.750214 297.163391,201.750214 
	C296.987000,193.133896 305.422577,190.011917 307.588837,183.028214 
	C304.694580,182.833191 301.662933,182.628891 298.256622,182.399353 
	C298.166351,180.612549 298.087402,179.050079 297.994995,177.220596 
	C304.776245,177.220596 311.195679,177.220596 317.709625,177.220596 
	C318.768188,183.064606 313.969971,185.430435 311.200226,189.310181 
z"/>
<path fill="#EB1E49" opacity="1.000000" stroke="none" 
	d="
M654.772949,195.590652 
	C654.988464,187.226013 654.988464,179.275986 654.988464,171.106247 
	C653.040283,170.951752 651.430115,170.824051 649.387268,170.662048 
	C649.250000,169.285126 649.113403,167.915085 648.946533,166.242004 
	C653.382507,166.242004 657.449585,166.242004 661.948547,166.242004 
	C661.948547,176.193787 661.948547,185.944473 661.948547,195.954834 
	C664.248047,196.166336 666.155701,196.341797 668.414673,196.549576 
	C668.414673,198.278732 668.414673,199.837570 668.414673,201.712357 
	C661.874207,201.712357 655.469238,201.712357 648.687866,201.712357 
	C648.603394,200.105438 648.521667,198.549545 648.425171,196.714142 
	C650.685913,196.452805 652.621704,196.229050 654.772949,195.590652 
z"/>
<path fill="#E61F4A" opacity="1.000000" stroke="none" 
	d="
M401.210907,195.712860 
	C403.322144,195.801437 405.133545,196.095490 407.637146,196.501923 
	C402.299652,203.849213 395.074921,204.836517 389.264313,199.596466 
	C383.383972,194.293564 382.072144,187.376984 388.200073,180.418732 
	C393.728607,174.141129 401.014099,174.515121 407.523773,181.387436 
	C406.461365,182.556107 405.384216,183.741028 404.072571,185.183884 
	C400.758392,182.290085 396.654694,179.365067 393.599548,183.995468 
	C391.872284,186.613312 391.802948,191.359558 392.874146,194.504272 
	C393.990662,197.782211 397.731110,198.044708 401.210907,195.712860 
z"/>
<path fill="#E31F49" opacity="1.000000" stroke="none" 
	d="
M802.704712,187.433762 
	C802.783386,192.353073 802.783386,196.818283 802.783386,201.659576 
	C800.494690,201.659576 798.262207,201.659576 795.649475,201.659576 
	C795.649475,193.704468 795.649475,185.670654 795.649475,177.689850 
	C800.385132,177.103683 804.936829,176.155975 809.504517,176.071625 
	C815.292480,175.964737 816.416992,178.192078 814.271790,183.288345 
	C811.350098,182.963959 808.517883,182.113190 805.926453,182.584961 
	C804.603516,182.825806 803.712402,185.438843 802.704712,187.433762 
z"/>
<path fill="#E5204A" opacity="1.000000" stroke="none" 
	d="
M713.963257,192.765045 
	C713.964233,189.314560 713.964233,186.332199 713.964233,182.940598 
	C709.795837,183.206024 707.933228,181.536163 709.384644,177.203400 
	C712.931213,177.203400 716.512573,177.203400 720.617554,177.203400 
	C720.617554,183.497055 720.617554,189.576187 720.617554,195.905746 
	C722.845337,196.155746 724.597290,196.352341 726.639038,196.581451 
	C726.639038,198.329025 726.639038,199.882706 726.639038,201.736816 
	C720.740173,201.736816 714.974365,201.736816 708.653870,201.736816 
	C708.529114,200.307739 708.394165,198.761536 708.296082,197.637344 
	C709.902710,195.206009 714.683716,197.952362 713.963257,192.765045 
z"/>
<path fill="#ED1F49" opacity="1.000000" stroke="none" 
	d="
M827.307800,176.990356 
	C830.740967,176.982605 833.718750,176.982605 837.366821,176.982605 
	C837.366821,180.393188 837.366821,183.490219 837.366821,186.587265 
	C837.366821,189.555344 837.366821,192.523407 837.366821,195.705994 
	C839.273499,196.079178 840.840576,196.385895 842.767273,196.762985 
	C842.840759,198.322968 842.914856,199.895798 843.002319,201.752548 
	C837.093689,201.752548 831.503601,201.752548 825.921082,201.752548 
	C824.731201,196.719284 824.731201,196.719284 830.652954,195.912308 
	C830.652954,191.732910 830.652954,187.502533 830.652954,182.931641 
	C828.986389,182.723907 827.266541,182.509537 824.325073,182.142899 
	C825.330933,180.095245 826.091675,178.546677 827.307800,176.990356 
z"/>
<path fill="#E41E49" opacity="1.000000" stroke="none" 
	d="
M713.117188,169.798187 
	C714.706238,168.273987 716.258362,166.536163 718.046265,166.244690 
	C719.065735,166.078476 720.887024,168.084930 721.515442,169.486115 
	C721.805908,170.133850 720.336426,172.281250 719.263123,172.687622 
	C716.746521,173.640503 714.343445,173.120728 713.117188,169.798187 
z"/>
<path fill="#E11E4A" opacity="1.000000" stroke="none" 
	d="
M831.850098,166.218994 
	C834.878174,165.895706 838.168457,165.430832 837.711304,169.381088 
	C837.552673,170.752136 834.658508,172.684158 832.909607,172.800964 
	C829.794556,173.009048 829.215332,169.976089 831.850098,166.218994 
z"/>
<path fill="#000000" opacity="1.000000" stroke="none" 
	d="
M490.650696,70.203903 
	C498.422302,78.366287 499.386505,88.235275 498.556213,98.291260 
	C498.185425,102.781906 496.488007,107.313629 494.642792,111.495880 
	C492.013123,117.456093 486.095123,120.630684 480.155334,119.919449 
	C473.727783,119.149834 470.008728,114.849022 468.349182,109.185066 
	C465.215118,98.488518 465.043793,87.574684 468.274750,76.821625 
	C471.241974,66.946327 480.218719,64.251099 490.650696,70.203903 
z"/>
<path fill="#000000" opacity="1.000000" stroke="none" 
	d="
M305.301270,90.998367 
	C303.425079,90.847572 302.001984,90.698090 299.915192,90.478897 
	C303.025452,79.513824 305.981293,69.093193 308.937134,58.672558 
	C309.223206,58.645088 309.509277,58.617619 309.795319,58.590149 
	C312.693451,69.046486 315.591583,79.502823 318.778107,90.999672 
	C313.857971,90.999672 309.806152,90.999672 305.301270,90.998367 
z"/>
<path fill="#040305" opacity="1.000000" stroke="none" 
	d="
M333.340454,189.241119 
	C333.418823,188.125626 333.531799,187.290833 333.910095,186.601685 
	C334.784637,185.008377 335.787750,183.485626 336.738739,181.934265 
	C338.511139,183.256195 340.925140,184.234268 341.870972,185.999161 
	C342.772156,187.680771 342.780884,190.457916 342.010773,192.250198 
	C341.185394,194.171158 339.068115,196.711731 337.380585,196.816208 
	C334.754456,196.978821 333.190521,194.588318 333.789062,191.523331 
	C333.906830,190.920319 333.604279,190.235229 333.340454,189.241119 
z"/>
<path fill="#040305" opacity="1.000000" stroke="none" 
	d="
M629.223999,191.625641 
	C630.794739,191.875488 631.993408,192.202545 633.225708,192.538788 
	C631.414978,197.206390 631.414978,197.206390 625.549133,196.911148 
	C623.821411,193.426392 626.121399,192.437698 629.223999,191.625641 
z"/>
<path fill="#090509" opacity="1.000000" stroke="none" 
	d="
M771.308472,186.666061 
	C772.271667,184.918839 773.641907,182.086853 774.794006,182.172989 
	C776.719971,182.316986 778.506592,184.325043 780.351868,185.548462 
	C780.079651,185.996628 779.807434,186.444794 779.535217,186.892960 
	C776.895996,186.892960 774.256714,186.892960 771.308472,186.666061 
z"/>
<path fill="#030203" opacity="1.000000" stroke="none" 
	d="
M539.037476,183.052338 
	C544.344543,181.342010 547.169556,183.247482 547.005127,188.203430 
	C546.906921,191.164993 548.330750,194.977493 544.308777,196.392273 
	C542.781494,196.929504 539.453186,196.444443 539.142395,195.608688 
	C538.004089,192.546829 537.670959,189.154297 537.313965,185.856033 
	C537.228333,185.065399 538.220520,184.158112 539.037476,183.052338 
z"/>
</svg>